# xmcd CD database file
#
# Track frame offsets:
#	150
#	24599
#	46864
#	64292
#	87619
#
# Disc length: 1406 seconds
#
# Revision: 0
# Processed by: cddbd v1.4PL0 Copyright (c) Steve Scherf et al.
# Submitted via: CDex 1.50beta10
#
DISCID=3e057c05
DTITLE=Don Ciccio Philarmonic Orchestra - ...Ma Anche No!
DYEAR=2003
DGENRE=Blues
TTITLE0=Nella Mia Via
TTITLE1=Ninna Nanna Al Mio Bambino
TTITLE2=Aveva Ragione Venezia
TTITLE3=L'Ottone E Il Lucido Da Scarpe
TTITLE4=La Clinica Degli Alienati
EXTD=YEAR: 2003
EXTT0=
EXTT1=
EXTT2=
EXTT3=
EXTT4=
PLAYORDER=
